<svg xmlns="http://www.w3.org/2000/svg"  viewBox="0 0 48200 13630">
<g id="l2wtliSlMPgcLBfK4SVoEHB" fill="rgb(255,255,255)">
<g><path id="p16VdKgg10" d="M14246 12155 c-215 -44 -374 -130 -523 -282 -86 -86 -103 -118 -85 -157 6 -13 92 -80 193 -150 214 -148 221 -150 289 -80 69 70 182 153 239 175 73 27 173 26 231 -3 107 -55 132 -200 47 -275 -38 -33 -60 -43 -275 -123 -391 -145 -558 -276 -627 -492 -112 -352 64 -684 431 -812 126 -44 234 -59 389 -53 206 8 354 52 502 149 85 56 197 158 219 200 27 52 12 69 -170 206 -180 135 -205 152 -230 152 -8 0 -61 -39 -118 -86 -135 -112 -174 -135 -246 -141 -129 -12 -221 79 -192 189 15 54 56 80 252 159 233 95 345 149 443 214 100 66 201 171 237 247 129 264 35 614 -214 803 -78 59 -197 116 -303 146 -103 28 -381 36 -489 14z"></path><path id="pxP2S5A53" d="M20892 12159 c-110 -14 -223 -48 -321 -95 -79 -39 -109 -61 -181 -133 -72 -71 -95 -102 -134 -181 -52 -107 -89 -241 -105 -383 -7 -58 -11 -344 -11 -725 0 -622 0 -630 21 -656 l20 -26 268 0 c264 0 268 0 289 23 21 22 21 27 25 662 3 558 6 648 20 703 46 173 137 242 317 242 180 0 271 -69 317 -242 14 -55 17 -145 20 -703 4 -635 4 -640 25 -662 21 -23 25 -23 289 -23 l268 0 21 27 21 27 -4 686 c-4 735 -4 735 -58 900 -106 321 -343 509 -703 559 -88 12 -310 12 -404 0z"></path><path id="pdB2oUneq" d="M30320 12155 c-457 -77 -818 -421 -922 -879 -28 -123 -30 -344 -4 -466 49 -231 154 -422 321 -586 140 -137 323 -241 512 -290 131 -34 338 -43 468 -21 482 84 854 457 936 937 17 103 15 287 -5 391 -104 545 -574 933 -1125 928 -58 -1 -140 -7 -181 -14z m315 -630 c169 -44 313 -183 360 -347 93 -324 -150 -648 -484 -648 -254 1 -464 181 -503 431 -53 353 281 654 627 564z"></path><path id="py2WVhNjz" d="M33580 12151 c-212 -47 -418 -165 -536 -307 -95 -114 -95 -114 134 -274 135 -94 194 -130 215 -130 22 0 45 15 92 59 83 77 182 147 235 166 23 8 72 15 109 15 133 -1 211 -71 211 -189 0 -81 -62 -136 -217 -191 -361 -127 -492 -197 -609 -323 -112 -119 -157 -242 -156 -427 0 -168 51 -291 170 -413 284 -290 855 -319 1217 -62 78 56 195 177 195 203 0 41 -16 57 -184 182 -180 133 -206 150 -229 150 -8 0 -63 -41 -123 -91 -129 -107 -168 -129 -244 -136 -68 -6 -138 20 -166 62 -25 38 -30 115 -10 152 22 43 54 61 267 146 310 125 440 198 553 313 118 119 161 237 154 424 -5 129 -30 218 -90 317 -96 161 -274 288 -483 344 -116 31 -384 37 -505 10z"></path><path id="pbYMFgUpx" d="M17417 12098 c-9 -7 -21 -26 -27 -41 -6 -19 -10 -276 -10 -762 l0 -734 -26 -20 c-25 -20 -39 -21 -285 -21 -168 0 -267 -4 -282 -11 -42 -19 -47 -46 -47 -278 0 -206 1 -220 21 -245 l20 -26 919 0 919 0 20 26 c20 25 21 39 21 245 0 232 -5 259 -47 278 -15 7 -114 11 -282 11 -246 0 -260 1 -285 21 l-26 20 0 733 c0 756 -1 785 -40 806 -29 16 -542 13 -563 -2z"></path><path id="p88drtWrV" d="M23659 12092 l-24 -20 0 -1037 0 -1037 24 -19 c22 -18 45 -19 460 -19 539 0 634 11 867 101 401 156 635 515 634 974 -2 349 -139 643 -387 829 -141 105 -290 171 -498 217 -94 21 -128 23 -576 26 -462 4 -476 4 -500 -15z m895 -547 c223 -39 353 -147 402 -336 21 -79 23 -262 5 -339 -43 -175 -156 -285 -346 -335 -66 -18 -277 -32 -319 -21 -55 14 -56 23 -56 521 0 383 2 461 15 485 8 15 20 30 27 33 27 11 190 6 272 -8z"></path><path id="pkOX6DRiK" d="M27215 12085 l-25 -24 0 -1024 c0 -1021 0 -1024 21 -1051 l20 -26 279 0 c259 0 279 1 301 19 l24 19 3 1014 c1 557 0 1023 -3 1036 -3 12 -14 31 -25 42 -19 19 -35 20 -295 20 l-276 0 -24 -25z"></path><path id="p1Gc62GM8v" d="M13120 8414 c-19 -2 -84 -9 -145 -14 -773 -75 -1529 -443 -2085 -1016 -829 -853 -1152 -2051 -866 -3209 168 -680 553 -1302 1091 -1764 546 -469 1208 -746 1939 -812 162 -15 569 -6 726 16 367 51 709 152 1027 305 1080 519 1803 1543 1929 2731 23 216 15 636 -15 834 -60 392 -163 717 -331 1050 -103 205 -183 334 -312 507 -299 398 -649 705 -1079 946 -384 215 -794 349 -1250 407 -117 15 -550 28 -629 19z m430 -1758 c350 -47 673 -200 923 -436 260 -246 424 -538 499 -886 20 -96 23 -135 23 -334 -1 -194 -4 -239 -23 -327 -130 -596 -550 -1066 -1118 -1252 -192 -63 -286 -76 -529 -75 -230 0 -316 13 -507 74 -127 41 -333 146 -448 227 -113 81 -284 248 -364 355 -160 216 -263 456 -312 723 -24 134 -25 421 -1 550 101 546 425 980 912 1223 164 82 399 150 570 165 100 9 279 5 375 -7z"></path><path id="p1EfDFBAkJ" d="M1787 8326 c-50 -18 -76 -42 -98 -91 -18 -39 -19 -156 -19 -3225 0 -2060 4 -3198 10 -3220 11 -41 61 -94 103 -109 40 -15 5574 -15 5614 0 15 6 39 20 51 32 53 49 53 48 56 495 2 475 5 494 90 667 80 163 207 290 371 371 170 84 191 87 677 93 411 6 428 7 454 27 15 11 37 33 48 48 l21 27 3 2386 2 2385 -22 40 c-12 21 -38 49 -58 61 l-35 22 -693 3 c-453 2 -706 -1 -731 -8 -48 -13 -86 -42 -109 -83 -16 -30 -17 -175 -22 -2317 l-5 -2285 -32 -67 c-41 -88 -113 -160 -201 -201 l-67 -32 -315 0 -315 0 -67 32 c-88 41 -160 113 -201 201 l-32 67 -5 1451 -5 1450 -27 42 c-54 81 -8 77 -773 80 -470 2 -696 0 -731 -8 -55 -12 -104 -53 -123 -103 -8 -20 -11 -467 -11 -1432 0 -1002 -3 -1419 -11 -1457 -32 -149 -144 -270 -291 -313 -48 -14 -101 -16 -350 -13 -292 3 -293 3 -348 29 -113 54 -196 146 -230 256 -20 64 -20 88 -20 2318 0 1572 -3 2262 -11 2282 -15 40 -48 73 -94 94 -38 17 -80 19 -725 18 -552 0 -692 -3 -723 -13z"></path><path id="p5p3OF52P" d="M20540 8329 c-1617 -110 -2922 -1372 -3090 -2989 -21 -203 -7 -265 67 -311 l38 -24 715 0 c703 0 716 0 750 21 42 24 78 75 84 118 45 332 122 550 275 778 133 199 269 335 469 469 181 121 364 198 591 247 l126 27 776 0 775 0 76 -38 c94 -46 175 -129 210 -214 l23 -58 3 -1507 2 -1508 -1587 0 c-1011 0 -1601 -4 -1623 -10 -41 -11 -94 -61 -109 -103 -8 -19 -11 -258 -11 -726 l0 -697 23 -44 c16 -33 34 -51 67 -67 l44 -23 2367 0 2366 0 43 23 c30 16 51 37 67 67 l23 43 0 2367 0 2367 -23 44 c-45 85 -34 83 -522 90 -461 6 -466 6 -607 63 -103 42 -171 89 -268 186 -105 105 -162 195 -204 320 -39 120 -46 207 -46 602 0 417 0 418 -73 466 l-41 27 -825 1 c-454 1 -882 -2 -951 -7z"></path><path id="p1sd9ejpT" d="M25024 8329 c-41 -12 -101 -79 -109 -121 -3 -18 -4 -814 -2 -1768 3 -1860 1 -1774 52 -2049 126 -675 457 -1291 956 -1776 527 -512 1153 -813 1915 -921 102 -15 245 -18 1027 -21 l908 -4 44 21 c27 13 53 36 67 58 23 37 23 41 29 472 6 479 7 481 75 628 99 216 286 378 519 452 84 26 302 39 695 40 240 0 257 1 289 21 49 29 68 57 80 112 14 61 15 4673 1 4731 -11 49 -37 85 -81 111 -33 19 -52 20 -750 20 l-715 0 -36 -25 c-77 -52 -72 -13 -78 -700 -5 -595 -6 -617 -26 -666 -47 -115 -133 -202 -241 -246 l-58 -23 -990 -5 c-940 -5 -992 -6 -1020 -23 -17 -11 -42 -35 -55 -55 l-25 -36 -3 -695 c-2 -467 0 -708 7 -732 14 -46 44 -85 84 -107 30 -16 108 -17 1027 -22 l995 -5 67 -34 c115 -57 201 -167 227 -289 7 -35 11 -209 11 -505 0 -482 -3 -514 -51 -608 -27 -54 -90 -121 -147 -158 -100 -63 -81 -62 -923 -59 -750 3 -766 4 -872 26 -664 140 -1155 628 -1309 1299 l-22 98 -6 1725 c-5 1577 -6 1728 -21 1755 -10 17 -26 38 -37 48 -50 46 -59 46 -782 46 -379 -1 -699 -5 -716 -10z"></path><path id="pkdphB64k" d="M32547 8326 c-50 -18 -76 -42 -98 -91 -18 -39 -19 -156 -19 -3225 0 -2060 4 -3198 10 -3220 11 -41 61 -94 103 -109 20 -8 748 -11 2390 -11 2282 0 2363 1 2403 19 23 10 52 34 65 52 l24 34 6 430 c5 394 7 436 26 505 84 301 303 519 608 601 74 21 110 23 505 28 l425 6 34 24 c18 13 42 42 52 65 18 40 19 121 19 2401 0 2269 -1 2362 -19 2400 -10 22 -28 48 -39 58 -51 46 -60 46 -772 47 -442 0 -688 -4 -713 -11 -51 -14 -104 -63 -117 -107 -6 -25 -10 -789 -10 -2283 0 -2224 0 -2248 -20 -2312 -34 -110 -117 -202 -230 -256 l-55 -26 -1360 0 -1360 0 -55 26 c-113 54 -196 146 -230 256 -20 64 -20 88 -20 2312 0 1448 -4 2259 -10 2282 -5 19 -22 47 -37 62 -62 59 -40 57 -785 57 -550 -1 -690 -4 -721 -14z"></path><path id="pjiRqUtHu" d="M44975 8328 c-40 -14 -84 -56 -101 -95 -11 -26 -14 -143 -14 -615 0 -462 -3 -594 -14 -634 -40 -149 -151 -260 -301 -300 -79 -21 -959 -20 -1040 2 -156 40 -275 169 -304 329 -7 38 -11 261 -11 630 l0 572 -23 34 c-39 58 -81 79 -156 79 -138 0 -444 -46 -636 -95 -1192 -306 -2116 -1232 -2414 -2420 -195 -779 -100 -1635 260 -2355 447 -891 1284 -1524 2279 -1724 311 -63 200 -59 2115 -63 963 -2 1764 -1 1782 2 43 8 92 50 114 100 17 38 19 82 18 725 0 723 0 732 -46 782 -10 11 -31 27 -48 37 -27 15 -179 16 -1770 21 -1725 6 -1741 6 -1835 27 -399 89 -727 293 -961 598 -173 225 -292 526 -330 838 -16 138 -6 404 20 529 48 223 151 458 278 638 79 111 259 295 354 363 129 91 325 169 474 187 223 27 439 -113 505 -329 19 -59 20 -94 20 -545 0 -318 4 -494 11 -521 14 -50 64 -100 114 -114 56 -15 3034 -15 3090 0 50 14 100 64 114 114 15 56 15 3034 0 3090 -14 50 -64 100 -114 114 -54 15 -1387 14 -1430 -1z"></path></g></g></svg>